<?xml version="1.0" standalone="no"?>
<!DOCTYPE svg PUBLIC "-//W3C//DTD SVG 20010904//EN" "http://www.w3.org/TR/2001/REC-SVG-20010904/DTD/svg10.dtd">
<svg version="1.0" xmlns="http://www.w3.org/2000/svg" width="1042.000000pt" height="1042.000000pt" viewBox="0 0 1042.000000 1042.000000" preserveAspectRatio="xMidYMid meet">
  <g transform="translate(0.000000,1042.000000) scale(0.100000,-0.100000)" fill="#be1e2e" stroke="none">
    <path d="M4860 10410 c-935 -68 -1813 -371 -2581 -891 -519 -352 -1016 -848
-1373 -1371 -788 -1156 -1077 -2576 -805 -3958 202 -1024 725 -1982 1483
-2718 1290 -1251 3128 -1747 4876 -1316 915 225 1758 702 2430 1374 579 579
1000 1261 1260 2040 385 1153 351 2425 -96 3554 -479 1209 -1382 2186 -2549
2761 -561 276 -1147 444 -1780 510 -179 19 -688 27 -865 15z m-630 -1976 c162
-36 288 -111 357 -212 53 -78 66 -126 61 -227 -4 -62 -12 -96 -37 -152 -30
-69 -31 -74 -16 -103 19 -36 57 -48 93 -29 46 24 148 132 172 184 43 89 39
226 -11 329 -25 53 -24 59 12 101 114 129 384 152 651 55 122 -45 117 -37 75
-118 -111 -211 -77 -379 106 -524 56 -43 81 -47 114 -16 29 27 29 53 -1 119
-14 29 -30 83 -37 120 -38 214 125 404 402 468 239 55 389 28 544 -96 33 -27
82 -78 109 -113 l49 -65 -129 -6 c-139 -7 -228 -27 -352 -78 -155 -64 -283
-166 -324 -257 -19 -43 -19 -48 -4 -59 51 -38 183 -21 356 45 191 73 294 89
450 71 173 -21 354 -95 560 -228 168 -109 283 -238 325 -363 25 -76 16 -188
-25 -315 l-32 -100 -126 -1 c-143 -1 -234 -15 -497 -79 -334 -80 -490 -108
-610 -109 -92 -1 -117 2 -156 20 -91 42 -158 136 -159 221 0 111 98 248 228
316 134 71 406 103 732 88 204 -10 225 -7 249 43 17 36 3 92 -31 123 -51 48
-245 92 -433 100 -456 19 -864 -165 -965 -435 -75 -200 -26 -452 118 -597 107
-108 233 -149 457 -149 183 0 307 20 640 104 381 96 541 98 716 9 115 -57 241
-206 283 -333 88 -262 -83 -506 -424 -607 -69 -20 -105 -23 -450 -29 -403 -8
-468 -16 -622 -73 -170 -62 -355 -210 -411 -327 -81 -170 -75 -344 19 -536 97
-198 282 -334 455 -334 94 0 206 50 288 128 33 31 41 46 41 73 0 51 -14 59
-101 59 -147 0 -250 35 -329 111 -127 124 -125 331 4 463 57 58 119 94 211
122 53 16 102 18 439 17 l378 -1 30 -29 c98 -92 121 -248 57 -381 -12 -24 -44
-65 -72 -90 -132 -123 -127 -117 -127 -158 0 -52 31 -100 69 -109 47 -10 157
52 230 130 l59 63 53 -36 c113 -74 209 -195 268 -334 23 -57 26 -75 26 -188 0
-120 -1 -128 -33 -194 -66 -140 -218 -255 -422 -321 -72 -24 -102 -28 -200
-28 -167 -1 -230 27 -395 174 -149 132 -202 146 -226 57 -62 -230 208 -470
566 -503 120 -12 312 24 447 83 70 30 73 28 83 -59 27 -231 -115 -343 -495
-393 -111 -15 -234 -23 -683 -46 -407 -22 -553 -66 -703 -215 -136 -134 -165
-256 -84 -349 49 -56 119 -80 230 -81 117 0 153 16 148 68 -2 23 -14 39 -48
65 -52 39 -74 74 -65 103 26 80 325 149 736 169 112 5 225 12 252 15 26 3 47
2 47 -3 0 -19 -194 -244 -291 -337 -172 -166 -315 -262 -477 -318 -120 -42
-279 -49 -400 -19 -251 64 -457 244 -534 469 -56 162 -35 340 62 533 107 212
260 356 443 416 77 26 96 28 312 32 247 4 275 10 297 57 6 13 8 35 4 49 -10
39 -110 132 -179 165 -157 76 -322 63 -542 -43 -95 -46 -261 -155 -279 -184
-3 -6 -30 -3 -69 8 -127 35 -148 58 -167 176 -25 159 47 371 175 513 50 55
122 101 244 155 126 55 141 68 141 116 0 48 -34 80 -190 177 -153 96 -225 155
-276 231 -72 104 -104 245 -104 452 0 223 47 323 201 425 164 110 442 165 834
165 166 0 430 18 550 36 258 41 395 125 395 242 0 85 -77 124 -131 66 -64 -69
-142 -82 -564 -94 -187 -5 -409 -15 -493 -21 l-153 -11 -95 37 c-52 20 -114
51 -137 69 -90 68 -183 212 -233 359 -72 210 -73 502 -3 640 37 71 60 96 150
157 83 57 139 110 139 132 0 21 -59 67 -101 78 -90 24 -196 -16 -287 -107
-100 -101 -162 -251 -183 -439 -26 -233 39 -525 163 -731 45 -75 148 -194 197
-229 42 -30 51 -44 28 -44 -7 0 -64 -25 -126 -56 -97 -48 -126 -68 -197 -138
-65 -64 -91 -98 -119 -158 -91 -191 -101 -503 -25 -778 45 -159 160 -359 250
-430 l38 -30 -69 -66 c-266 -258 -372 -670 -240 -933 34 -67 118 -149 189
-185 l52 -26 -29 -48 c-40 -64 -88 -185 -119 -301 -22 -84 -25 -116 -26 -256
0 -145 3 -168 27 -248 15 -48 41 -115 58 -148 l30 -60 -20 -32 c-62 -100 -183
-151 -306 -128 -113 21 -207 81 -269 169 l-26 39 25 55 c47 104 67 202 68 343
1 193 -44 374 -134 544 -22 40 -38 74 -37 75 2 1 25 12 51 24 107 50 196 168
228 302 20 85 15 241 -10 340 -44 170 -142 343 -266 467 l-72 72 59 58 c184
181 291 514 275 847 -13 263 -97 437 -271 560 -70 50 -162 98 -222 116 l-41
12 80 77 c98 94 154 171 212 292 88 188 120 351 112 572 -6 166 -26 248 -90
371 -110 212 -326 307 -449 197 -45 -40 -34 -68 48 -128 135 -98 149 -109 181
-151 18 -24 43 -76 55 -115 32 -101 32 -340 0 -470 -32 -130 -73 -226 -136
-321 -66 -99 -112 -141 -198 -183 -126 -61 -152 -65 -300 -54 -73 6 -259 13
-413 16 -459 10 -576 26 -647 91 -58 52 -117 44 -138 -20 -30 -93 47 -182 208
-237 136 -47 310 -66 713 -79 173 -5 366 -16 430 -25 331 -43 539 -167 604
-360 36 -108 28 -379 -16 -520 -45 -144 -129 -233 -358 -379 -164 -104 -195
-139 -172 -193 11 -26 32 -40 139 -89 156 -73 217 -116 278 -196 118 -157 169
-352 133 -517 -14 -68 -45 -96 -138 -124 l-76 -23 -90 68 c-209 159 -451 240
-620 209 -79 -15 -169 -59 -228 -111 -80 -71 -97 -128 -51 -171 25 -24 29 -24
267 -30 266 -7 298 -13 417 -75 177 -92 325 -278 400 -500 81 -244 36 -459
-134 -641 -149 -160 -318 -241 -526 -250 -146 -7 -242 15 -385 87 -213 107
-419 297 -648 598 -8 11 -1 12 39 8 27 -4 144 -11 259 -16 464 -23 735 -93
735 -191 0 -26 -25 -54 -91 -99 -28 -20 -28 -65 0 -93 19 -20 32 -22 124 -22
92 0 108 3 160 28 32 16 69 44 85 64 38 50 39 145 2 218 -41 81 -156 188 -252
234 -137 65 -244 85 -549 101 -107 6 -279 15 -384 21 -464 25 -675 87 -760
223 -28 46 -30 57 -30 140 0 50 3 103 8 118 l7 27 67 -31 c213 -96 457 -110
661 -36 218 79 355 228 355 388 0 71 -12 103 -43 120 -29 16 -78 -13 -200
-119 -58 -51 -132 -105 -165 -121 -148 -73 -335 -62 -533 31 -204 95 -312 218
-343 388 -36 206 81 450 288 597 l61 44 63 -65 c65 -68 144 -120 196 -131 25
-5 37 0 64 24 30 27 34 36 34 82 0 56 8 46 -113 148 -35 29 -61 63 -84 109
-30 61 -33 76 -33 153 0 95 19 147 78 214 l32 38 380 1 c329 1 389 -1 444 -16
126 -34 225 -108 278 -208 25 -48 28 -64 28 -149 0 -84 -3 -101 -27 -145 -69
-130 -199 -195 -388 -195 -70 0 -81 -2 -94 -22 -24 -34 -20 -54 20 -97 72 -80
203 -141 303 -141 178 0 363 141 460 352 87 189 90 353 9 518 -63 128 -243
270 -420 330 -167 57 -213 62 -618 70 l-375 6 -95 32 c-359 119 -507 392 -365
672 68 133 194 248 319 290 165 54 311 45 649 -40 338 -85 450 -104 637 -104
172 0 238 12 343 66 168 85 266 264 267 489 0 151 -51 269 -161 373 -116 110
-278 185 -489 228 -158 31 -428 32 -570 1 -141 -31 -208 -59 -231 -97 -34 -56
-18 -126 35 -145 11 -5 102 -5 201 0 316 14 590 -17 721 -81 114 -56 199 -152
231 -259 23 -79 6 -144 -53 -210 -70 -78 -117 -96 -249 -95 -124 0 -213 16
-570 99 -332 78 -385 87 -534 90 l-134 3 -33 107 c-44 144 -50 197 -30 276 47
184 230 356 541 510 263 130 496 150 734 62 182 -66 246 -84 306 -86 84 -1
125 10 125 34 0 74 -124 196 -272 268 -151 75 -256 102 -410 108 -71 3 -128 8
-128 10 0 3 16 27 35 53 90 122 238 221 360 239 73 12 197 5 285 -15z m-1742
-3119 c29 -10 52 -20 50 -24 -2 -3 -19 -40 -40 -81 -46 -94 -62 -167 -56 -258
2 -51 0 -72 -8 -72 -36 0 -179 -87 -247 -150 -41 -39 -79 -70 -84 -70 -10 0
-42 40 -61 76 -23 43 -32 147 -21 235 21 174 99 330 202 408 l50 38 81 -43
c44 -23 105 -50 134 -59z m5730 41 c63 -57 118 -145 149 -240 23 -70 27 -98
27 -211 1 -115 -2 -135 -20 -170 -12 -22 -31 -49 -43 -59 -21 -19 -21 -19 -79
37 -72 68 -167 130 -233 152 l-49 17 6 61 c8 84 -16 190 -64 281 l-38 74 55
17 c58 18 152 63 186 88 24 18 40 11 103 -47z" />
  </g>
</svg>